<svg width="236" height="51" viewBox="0 0 236 51" fill="none" xmlns="http://www.w3.org/2000/svg">
<path d="M69.229 7.39648C70.3358 7.39648 71.4059 7.46566 72.4395 7.604C73.4811 7.73421 74.4129 7.96208 75.2349 8.2876C76.0649 8.60498 76.7445 9.0363 77.2734 9.58154C77.8105 10.1268 78.1239 10.8063 78.2134 11.6201L75.0396 12.499C75.0396 12.0107 74.8727 11.612 74.5391 11.3027C74.2135 10.9854 73.7782 10.7371 73.2329 10.5581C72.6958 10.3709 72.0773 10.2407 71.3774 10.1675C70.6857 10.0942 69.9696 10.0576 69.229 10.0576C68.5047 10.0576 67.7926 10.0902 67.0928 10.1553C66.3929 10.2204 65.7622 10.3424 65.2007 10.5215C64.6473 10.7005 64.1997 10.9487 63.8579 11.2661C63.5161 11.5835 63.3452 11.9945 63.3452 12.499V15.4043H78.2134V21.7275C78.2134 22.2728 78.0913 22.7611 77.8472 23.1924C77.6112 23.6156 77.2816 23.9858 76.8584 24.3032C76.4434 24.6125 75.9469 24.877 75.3691 25.0967C74.7995 25.3083 74.181 25.4792 73.5137 25.6094C72.8545 25.7396 72.1587 25.8332 71.4263 25.8901C70.6938 25.9471 69.9614 25.9756 69.229 25.9756C68.4803 25.9756 67.7438 25.9471 67.0195 25.8901C66.2952 25.8332 65.6076 25.7396 64.9565 25.6094C64.3055 25.4792 63.6992 25.3083 63.1377 25.0967C62.5843 24.877 62.096 24.6125 61.6729 24.3032C61.2497 23.9858 60.9079 23.6156 60.6475 23.1924C60.387 22.7692 60.2284 22.2809 60.1714 21.7275L63.3452 20.8486C63.3452 21.3532 63.5161 21.7642 63.8579 22.0815C64.1997 22.3989 64.6473 22.6471 65.2007 22.8262C65.7622 23.0052 66.3929 23.1273 67.0928 23.1924C67.7926 23.2575 68.5047 23.29 69.229 23.29C69.9696 23.29 70.6857 23.2575 71.3774 23.1924C72.0773 23.1191 72.6958 22.993 73.2329 22.814C73.7782 22.6268 74.2135 22.3745 74.5391 22.0571C74.8727 21.7397 75.0396 21.3369 75.0396 20.8486V17.8701H60.1714V11.6201C60.1714 11.0749 60.2894 10.5947 60.5254 10.1797C60.7695 9.75651 61.0991 9.3903 61.5142 9.08105C61.9373 8.76367 62.4378 8.49919 63.0156 8.2876C63.5934 8.06787 64.216 7.8929 64.8833 7.7627C65.5588 7.63249 66.2627 7.5389 66.9951 7.48193C67.7357 7.42497 68.4803 7.39648 69.229 7.39648ZM84.9761 26H81.8755V12.084H84.9761V26ZM83.438 7.25C84.0402 7.25 84.5163 7.35173 84.8662 7.55518C85.2161 7.75049 85.3911 8.0638 85.3911 8.49512V9.10547C85.3911 9.49609 85.2161 9.77686 84.8662 9.94775C84.5163 10.1187 84.0402 10.2041 83.438 10.2041C82.8602 10.2041 82.3923 10.1187 82.0342 9.94775C81.6842 9.77686 81.5093 9.49609 81.5093 9.10547V8.49512C81.5093 8.0638 81.6842 7.75049 82.0342 7.55518C82.3923 7.35173 82.8602 7.25 83.438 7.25ZM97.3784 12.084C98.3468 12.084 99.2909 12.145 100.21 12.2671C101.13 12.381 101.956 12.5804 102.688 12.8652C103.421 13.1419 104.023 13.5203 104.495 14.0005C104.967 14.4806 105.248 15.0788 105.337 15.7949L102.505 16.5762C102.505 16.153 102.359 15.8031 102.066 15.5264C101.781 15.2415 101.399 15.0218 100.918 14.8672C100.446 14.7044 99.9012 14.5905 99.2827 14.5254C98.6642 14.4603 98.0295 14.4277 97.3784 14.4277C96.7518 14.4277 96.1292 14.4603 95.5107 14.5254C94.9004 14.5824 94.3511 14.6922 93.8628 14.855C93.3826 15.0096 92.992 15.2253 92.6909 15.502C92.3979 15.7786 92.2515 16.1367 92.2515 16.5762V18.0654H105.337V22.2891C105.337 22.7692 105.232 23.1965 105.02 23.5708C104.808 23.937 104.515 24.2585 104.141 24.5352C103.767 24.8037 103.323 25.0356 102.811 25.231C102.306 25.4181 101.757 25.5687 101.163 25.6826C100.577 25.7965 99.9582 25.8779 99.3071 25.9268C98.6642 25.9756 98.0213 26 97.3784 26C96.3937 26 95.4416 25.943 94.522 25.8291C93.6024 25.707 92.7764 25.5076 92.0439 25.231C91.3115 24.9461 90.7093 24.5677 90.2373 24.0957C89.7734 23.6156 89.5008 23.0133 89.4194 22.2891L92.2515 21.5078C92.2515 21.9554 92.3979 22.3175 92.6909 22.5942C92.992 22.8709 93.3826 23.0866 93.8628 23.2412C94.3511 23.3958 94.9004 23.5016 95.5107 23.5586C96.1292 23.6074 96.7518 23.6318 97.3784 23.6318C98.0295 23.6318 98.6642 23.6034 99.2827 23.5464C99.9012 23.4813 100.446 23.3714 100.918 23.2168C101.399 23.054 101.781 22.8384 102.066 22.5698C102.359 22.2931 102.505 21.9391 102.505 21.5078V20.0186H89.4194V15.7949C89.4194 15.3148 89.5252 14.8916 89.7368 14.5254C89.9484 14.151 90.2373 13.8296 90.6035 13.561C90.9779 13.2843 91.4173 13.0524 91.9219 12.8652C92.4264 12.6699 92.9717 12.5153 93.5576 12.4014C94.1517 12.2874 94.7702 12.2061 95.4131 12.1572C96.0641 12.1084 96.7192 12.084 97.3784 12.084ZM111.661 21.5811C111.661 21.9554 111.795 22.2687 112.063 22.521C112.34 22.7733 112.706 22.9808 113.162 23.1436C113.626 23.2982 114.159 23.4121 114.761 23.4854C115.363 23.5505 115.99 23.583 116.641 23.583C117.325 23.583 117.968 23.5464 118.57 23.4731C119.172 23.3918 119.697 23.2738 120.145 23.1191C120.592 22.9564 120.946 22.7489 121.207 22.4966C121.467 22.2443 121.597 21.9391 121.597 21.5811V12.084L124.844 12.3281V22.3623C124.844 22.8018 124.734 23.2046 124.515 23.5708C124.303 23.937 124.006 24.2666 123.624 24.5596C123.241 24.8444 122.789 25.0926 122.269 25.3042C121.748 25.5158 121.182 25.6908 120.572 25.8291C119.97 25.9674 119.331 26.0692 118.655 26.1343C117.988 26.2075 117.317 26.2441 116.641 26.2441C115.958 26.2441 115.282 26.2075 114.615 26.1343C113.947 26.0692 113.309 25.9674 112.698 25.8291C112.096 25.6908 111.535 25.5158 111.014 25.3042C110.493 25.0926 110.041 24.8444 109.659 24.5596C109.276 24.2666 108.975 23.9411 108.755 23.583C108.544 23.2168 108.438 22.8099 108.438 22.3623V12.3281L111.661 12.084V21.5811Z" fill="#04016C"/>
<path d="M136.661 7.39648C137.767 7.39648 138.838 7.46566 139.871 7.604C140.913 7.73421 141.845 7.96208 142.667 8.2876C143.497 8.60498 144.176 9.0363 144.705 9.58154C145.242 10.1268 145.556 10.8063 145.645 11.6201L142.471 12.499C142.471 12.0107 142.304 11.612 141.971 11.3027C141.645 10.9854 141.21 10.7371 140.665 10.5581C140.127 10.3709 139.509 10.2407 138.809 10.1675C138.117 10.0942 137.401 10.0576 136.661 10.0576C135.936 10.0576 135.224 10.0902 134.524 10.1553C133.825 10.2204 133.194 10.3424 132.632 10.5215C132.079 10.7005 131.631 10.9487 131.29 11.2661C130.948 11.5835 130.777 11.9945 130.777 12.499V15.4043H145.645V21.7275C145.645 22.2728 145.523 22.7611 145.279 23.1924C145.043 23.6156 144.713 23.9858 144.29 24.3032C143.875 24.6125 143.379 24.877 142.801 25.0967C142.231 25.3083 141.613 25.4792 140.945 25.6094C140.286 25.7396 139.59 25.8332 138.858 25.8901C138.125 25.9471 137.393 25.9756 136.661 25.9756C135.912 25.9756 135.175 25.9471 134.451 25.8901C133.727 25.8332 133.039 25.7396 132.388 25.6094C131.737 25.4792 131.131 25.3083 130.569 25.0967C130.016 24.877 129.528 24.6125 129.104 24.3032C128.681 23.9858 128.34 23.6156 128.079 23.1924C127.819 22.7692 127.66 22.2809 127.603 21.7275L130.777 20.8486C130.777 21.3532 130.948 21.7642 131.29 22.0815C131.631 22.3989 132.079 22.6471 132.632 22.8262C133.194 23.0052 133.825 23.1273 134.524 23.1924C135.224 23.2575 135.936 23.29 136.661 23.29C137.401 23.29 138.117 23.2575 138.809 23.1924C139.509 23.1191 140.127 22.993 140.665 22.814C141.21 22.6268 141.645 22.3745 141.971 22.0571C142.304 21.7397 142.471 21.3369 142.471 20.8486V17.8701H127.603V11.6201C127.603 11.0749 127.721 10.5947 127.957 10.1797C128.201 9.75651 128.531 9.3903 128.946 9.08105C129.369 8.76367 129.869 8.49919 130.447 8.2876C131.025 8.06787 131.648 7.8929 132.315 7.7627C132.99 7.63249 133.694 7.5389 134.427 7.48193C135.167 7.42497 135.912 7.39648 136.661 7.39648ZM162.637 21.0195C162.434 20.8405 162.181 20.6655 161.88 20.4946C161.579 20.3237 161.209 20.1732 160.77 20.043C160.33 19.9046 159.805 19.7948 159.195 19.7134C158.593 19.6239 157.885 19.5791 157.071 19.5791C156.347 19.5791 155.659 19.5954 155.008 19.6279C154.365 19.6523 153.799 19.7337 153.311 19.8721C152.823 20.0023 152.436 20.2139 152.151 20.5068C151.867 20.7998 151.724 21.2067 151.724 21.7275V23.29C152.44 23.404 153.23 23.4976 154.092 23.5708C154.955 23.644 155.915 23.6807 156.973 23.6807C157.819 23.6807 158.719 23.6522 159.671 23.5952C160.631 23.5301 161.62 23.404 162.637 23.2168V21.0195ZM157.144 12.084C157.551 12.084 158.043 12.1043 158.621 12.145C159.199 12.1857 159.801 12.259 160.428 12.3647C161.054 12.4624 161.673 12.6007 162.283 12.7798C162.902 12.9507 163.455 13.1785 163.943 13.4634C164.44 13.7401 164.839 14.0737 165.14 14.4644C165.441 14.855 165.591 15.3148 165.591 15.8438V25.292C164.908 25.4303 164.135 25.5483 163.272 25.646C162.531 25.7355 161.648 25.8169 160.623 25.8901C159.598 25.9634 158.454 26 157.193 26C155.94 26 154.605 25.9471 153.189 25.8413C151.781 25.7355 150.308 25.5524 148.77 25.292V20.8975C148.77 20.4255 148.88 20.0145 149.1 19.6646C149.327 19.3065 149.637 19.0013 150.027 18.749C150.418 18.4967 150.878 18.2892 151.407 18.1265C151.936 17.9637 152.505 17.8335 153.116 17.7358C153.726 17.6382 154.361 17.5731 155.02 17.5405C155.679 17.4998 156.338 17.4795 156.998 17.4795C157.999 17.4795 158.849 17.5446 159.549 17.6748C160.257 17.7969 160.843 17.9312 161.307 18.0776C161.844 18.2567 162.287 18.4561 162.637 18.6758V16.6982C162.637 16.3646 162.556 16.0798 162.393 15.8438C162.23 15.5996 162.011 15.3962 161.734 15.2334C161.457 15.0625 161.14 14.9282 160.782 14.8306C160.424 14.7248 160.049 14.6434 159.659 14.5864C159.268 14.5295 158.869 14.4928 158.462 14.4766C158.064 14.4603 157.689 14.4521 157.339 14.4521C156.973 14.4521 156.583 14.4644 156.167 14.4888C155.752 14.505 155.337 14.5417 154.922 14.5986C154.515 14.6556 154.121 14.737 153.738 14.8428C153.364 14.9404 153.03 15.0747 152.737 15.2456C152.444 15.4165 152.208 15.624 152.029 15.8682C151.858 16.1042 151.773 16.389 151.773 16.7227L148.746 15.9414C148.746 15.3962 148.88 14.9242 149.148 14.5254C149.417 14.1185 149.771 13.7726 150.21 13.4878C150.658 13.203 151.171 12.971 151.749 12.792C152.326 12.6048 152.924 12.4624 153.543 12.3647C154.17 12.259 154.792 12.1857 155.411 12.145C156.029 12.1043 156.607 12.084 157.144 12.084ZM172.72 12.0352C172.671 12.4176 172.643 12.8164 172.635 13.2314C172.627 13.6383 172.623 14.0452 172.623 14.4521C172.623 15.5426 172.688 16.5355 172.818 17.4307C172.956 18.3258 173.184 19.1396 173.501 19.8721C173.819 20.6045 174.234 21.2677 174.747 21.8618C175.267 22.4478 175.91 22.9808 176.675 23.4609C177.432 22.9808 178.067 22.4478 178.58 21.8618C179.1 21.2677 179.52 20.6045 179.837 19.8721C180.154 19.1396 180.382 18.3258 180.521 17.4307C180.659 16.5355 180.728 15.5426 180.728 14.4521C180.728 14.0452 180.72 13.6383 180.704 13.2314C180.687 12.8164 180.655 12.4176 180.606 12.0352C181.33 12.0758 181.973 12.1287 182.535 12.1938C183.096 12.259 183.576 12.3241 183.975 12.3892C184.431 12.4705 184.838 12.5479 185.196 12.6211V15.4531C184.952 15.3473 184.724 15.266 184.512 15.209C184.309 15.1439 184.13 15.0951 183.975 15.0625C183.796 15.0299 183.633 15.0055 183.487 14.9893C183.454 16.0391 183.381 16.9993 183.267 17.8701C183.161 18.7327 182.994 19.5221 182.767 20.2383C182.547 20.9544 182.262 21.6095 181.912 22.2036C181.562 22.7896 181.139 23.3389 180.643 23.8516C180.154 24.3643 179.581 24.8485 178.921 25.3042C178.262 25.7518 177.514 26.1953 176.675 26.6348C175.837 26.1953 175.088 25.7518 174.429 25.3042C173.77 24.8485 173.192 24.3643 172.696 23.8516C172.199 23.3389 171.776 22.7896 171.426 22.2036C171.076 21.6095 170.787 20.9544 170.56 20.2383C170.34 19.5221 170.169 18.7327 170.047 17.8701C169.933 17.0075 169.864 16.0472 169.839 14.9893C169.693 15.0055 169.53 15.0299 169.351 15.0625C169.196 15.0951 169.013 15.1439 168.802 15.209C168.598 15.266 168.375 15.3473 168.13 15.4531V12.6211C168.472 12.5479 168.875 12.4705 169.339 12.3892C169.729 12.3241 170.21 12.259 170.779 12.1938C171.349 12.1287 171.996 12.0758 172.72 12.0352ZM191.836 26H188.736V12.084H191.836V26ZM190.298 7.25C190.901 7.25 191.377 7.35173 191.727 7.55518C192.076 7.75049 192.251 8.0638 192.251 8.49512V9.10547C192.251 9.49609 192.076 9.77686 191.727 9.94775C191.377 10.1187 190.901 10.2041 190.298 10.2041C189.721 10.2041 189.253 10.1187 188.895 9.94775C188.545 9.77686 188.37 9.49609 188.37 9.10547V8.49512C188.37 8.0638 188.545 7.75049 188.895 7.55518C189.253 7.35173 189.721 7.25 190.298 7.25ZM199.332 20.3359C199.332 20.7917 199.393 21.1864 199.515 21.52C199.637 21.8455 199.804 22.1263 200.015 22.3623C200.227 22.5902 200.467 22.7773 200.735 22.9238C201.012 23.0703 201.301 23.1842 201.602 23.2656C201.903 23.3389 202.208 23.3918 202.518 23.4243C202.827 23.4487 203.124 23.4609 203.409 23.4609C204.442 23.4609 205.382 23.3267 206.229 23.0581C207.075 22.7896 207.828 22.46 208.487 22.0693V12.084L211.636 12.3281V26.6104C211.636 27.1882 211.514 27.7253 211.27 28.2217C211.026 28.7181 210.672 29.1453 210.208 29.5034C209.744 29.8696 209.174 30.1545 208.499 30.3579C207.824 30.5614 207.055 30.6631 206.192 30.6631V28.5391C206.517 28.5391 206.819 28.5065 207.095 28.4414C207.372 28.3763 207.612 28.2746 207.815 28.1362C208.027 28.006 208.19 27.8392 208.304 27.6357C208.426 27.4404 208.487 27.2126 208.487 26.9521V24.3887C208.104 24.6247 207.714 24.8403 207.315 25.0356C206.924 25.231 206.513 25.4019 206.082 25.5483C205.651 25.6867 205.199 25.7965 204.727 25.8779C204.255 25.9593 203.759 26 203.238 26C201.976 26 200.898 25.8983 200.003 25.6948C199.108 25.4832 198.371 25.174 197.793 24.7671C197.224 24.3521 196.805 23.8394 196.536 23.229C196.268 22.6187 196.133 21.9066 196.133 21.0928V12.3281L199.332 12.084V20.3359ZM229.483 21.0195C229.279 20.8405 229.027 20.6655 228.726 20.4946C228.425 20.3237 228.055 20.1732 227.615 20.043C227.176 19.9046 226.651 19.7948 226.041 19.7134C225.438 19.6239 224.73 19.5791 223.917 19.5791C223.192 19.5791 222.505 19.5954 221.854 19.6279C221.211 19.6523 220.645 19.7337 220.157 19.8721C219.668 20.0023 219.282 20.2139 218.997 20.5068C218.712 20.7998 218.57 21.2067 218.57 21.7275V23.29C219.286 23.404 220.075 23.4976 220.938 23.5708C221.801 23.644 222.761 23.6807 223.819 23.6807C224.665 23.6807 225.564 23.6522 226.517 23.5952C227.477 23.5301 228.466 23.404 229.483 23.2168V21.0195ZM223.99 12.084C224.397 12.084 224.889 12.1043 225.467 12.145C226.045 12.1857 226.647 12.259 227.273 12.3647C227.9 12.4624 228.519 12.6007 229.129 12.7798C229.747 12.9507 230.301 13.1785 230.789 13.4634C231.285 13.7401 231.684 14.0737 231.985 14.4644C232.286 14.855 232.437 15.3148 232.437 15.8438V25.292C231.753 25.4303 230.98 25.5483 230.118 25.646C229.377 25.7355 228.494 25.8169 227.469 25.8901C226.443 25.9634 225.3 26 224.039 26C222.785 26 221.451 25.9471 220.035 25.8413C218.627 25.7355 217.154 25.5524 215.616 25.292V20.8975C215.616 20.4255 215.726 20.0145 215.945 19.6646C216.173 19.3065 216.482 19.0013 216.873 18.749C217.264 18.4967 217.723 18.2892 218.252 18.1265C218.781 17.9637 219.351 17.8335 219.961 17.7358C220.572 17.6382 221.207 17.5731 221.866 17.5405C222.525 17.4998 223.184 17.4795 223.843 17.4795C224.844 17.4795 225.695 17.5446 226.395 17.6748C227.103 17.7969 227.688 17.9312 228.152 18.0776C228.689 18.2567 229.133 18.4561 229.483 18.6758V16.6982C229.483 16.3646 229.402 16.0798 229.239 15.8438C229.076 15.5996 228.856 15.3962 228.58 15.2334C228.303 15.0625 227.986 14.9282 227.627 14.8306C227.269 14.7248 226.895 14.6434 226.504 14.5864C226.114 14.5295 225.715 14.4928 225.308 14.4766C224.909 14.4603 224.535 14.4521 224.185 14.4521C223.819 14.4521 223.428 14.4644 223.013 14.4888C222.598 14.505 222.183 14.5417 221.768 14.5986C221.361 14.6556 220.966 14.737 220.584 14.8428C220.21 14.9404 219.876 15.0747 219.583 15.2456C219.29 15.4165 219.054 15.624 218.875 15.8682C218.704 16.1042 218.619 16.389 218.619 16.7227L215.591 15.9414C215.591 15.3962 215.726 14.9242 215.994 14.5254C216.263 14.1185 216.617 13.7726 217.056 13.4878C217.504 13.203 218.016 12.971 218.594 12.792C219.172 12.6048 219.77 12.4624 220.389 12.3647C221.015 12.259 221.638 12.1857 222.256 12.145C222.875 12.1043 223.453 12.084 223.99 12.084Z" fill="#2AAA94"/>
<path d="M3.45459 19.5006L3.45944 19.5096C3.45944 19.5051 3.45459 19.5051 3.45459 19.5006Z" fill="#2AAA94"/>
<path opacity="0.2" d="M3.45459 19.5006L3.45944 19.5096C3.45944 19.5051 3.45459 19.5051 3.45459 19.5006Z" fill="#2AAA94"/>
<path d="M40.7722 7H2.23248C1.00579 7 0 7.92468 0 9.05245V49.7341C0 50.8619 0.869491 51.3242 1.93168 50.7581L12.5019 45.1452L17.3899 42.5527L26.5689 37.683L41.073 29.9874C41.2281 29.9053 41.3785 29.8016 41.5242 29.6849C42.3702 29.0152 43 27.8745 43 26.9109V23.9683V9.05245C43 7.92468 41.9989 7 40.7722 7ZM29.8636 28.972C29.8636 30.5837 25.4832 31.8843 20.0736 31.8843C14.6686 31.8843 10.2835 30.5794 10.2835 28.972V22.7541L19.0161 24.7547C19.3639 24.8325 19.7164 24.8757 20.0736 24.8757C20.4308 24.8757 20.7833 24.8368 21.1311 24.7547L29.8636 22.7541V28.972ZM36.044 20.14L34.714 20.4424V28.2849C35.043 28.6133 35.2498 29.093 35.2498 29.6288C35.2498 30.6139 34.5448 31.4176 33.68 31.4176C32.8152 31.4176 32.1102 30.6182 32.1102 29.6288C32.1102 29.093 32.317 28.609 32.646 28.2849V20.9177L29.8636 21.5529L20.9289 23.601C20.647 23.6659 20.365 23.7004 20.0736 23.7004C19.7869 23.7004 19.5002 23.6659 19.2229 23.601L10.2835 21.5529L4.10307 20.14C3.92917 20.1011 3.80227 20.006 3.68947 19.8937C3.58607 19.7857 3.50617 19.656 3.45917 19.5091L3.45448 19.5005C3.30408 18.9863 3.52027 18.3425 4.09837 18.2085L19.2182 14.7388C19.5002 14.6697 19.7869 14.6394 20.0689 14.6394C20.3556 14.6394 20.6423 14.674 20.9243 14.7388L36.044 18.2085C36.3401 18.2777 36.5281 18.4807 36.6362 18.727C36.8618 19.2585 36.6691 19.9931 36.044 20.14Z" fill="#04016C"/>
<path opacity="0.2" d="M36.6357 18.7313C36.8613 19.2585 36.6733 19.993 36.0435 20.1399L34.7134 20.4424V28.2849C35.0424 28.6133 35.2492 29.0929 35.2492 29.6287C35.2492 30.6139 34.5442 31.4176 33.6795 31.4176C32.8147 31.4176 32.1097 30.6182 32.1097 29.6287C32.1097 29.0929 32.3165 28.609 32.6455 28.2849V20.9177L29.8631 21.5529L20.9284 23.601C20.6464 23.6658 20.3644 23.7004 20.0731 23.7004C19.7864 23.7004 19.4997 23.6658 19.2224 23.601L10.283 21.5529L4.10256 20.1399C3.92866 20.1011 3.80176 20.006 3.68896 19.8937L17.3894 42.5527L26.5684 37.683L41.0725 29.9874C41.2276 29.9053 41.378 29.8016 41.5237 29.6849L36.6451 18.7356H36.6357V18.7313ZM29.8631 28.9719C29.8631 30.5837 25.4827 31.8843 20.0731 31.8843C14.6681 31.8843 10.283 30.5793 10.283 28.9719V22.7541L19.0156 24.7547C19.3634 24.8325 19.7159 24.8757 20.0731 24.8757C20.4302 24.8757 20.7827 24.8368 21.1305 24.7547L29.8631 22.7541V28.9719Z" fill="#2AAA94"/>
</svg>
