<svg width="80" height="72" viewBox="0 0 80 72" fill="none" xmlns="http://www.w3.org/2000/svg">
<path d="M78.4 57.3334H76.8V18.1334C76.8 15.8223 76.0444 13.9112 74.5333 12.4001C73.0222 10.889 71.2 10.1334 69.0667 10.1334H64.2667V6.40006C64.2667 4.62228 63.6889 3.15562 62.5333 2.00006C61.3778 0.844505 60 0.266731 58.4 0.266731H38.6667C36.8889 0.266731 35.4222 0.844505 34.2667 2.00006C33.1111 3.15562 32.5333 4.62228 32.5333 6.40006V10.1334H10.9333C8.8 10.1334 6.97778 10.889 5.46667 12.4001C3.95556 13.9112 3.2 15.8223 3.2 18.1334V57.3334H1.6C1.06667 57.3334 0.666667 57.5112 0.4 57.8667C0.133333 58.2223 0 58.5778 0 58.9334C0 62.489 1.24444 65.5112 3.73333 68.0001C6.22222 70.489 9.24444 71.7334 12.8 71.7334H33.0667C33.4222 71.7334 33.7333 71.6001 34 71.3334C34.2667 71.0667 34.4 70.7112 34.4 70.2667C34.4 69.8223 34.2667 69.4223 34 69.0667C33.7333 68.7112 33.4222 68.5334 33.0667 68.5334H12.8C10.4889 68.5334 8.4 67.7778 6.53333 66.2667C4.66667 64.7556 3.55556 62.8445 3.2 60.5334H76.8C76.4445 62.8445 75.3333 64.7556 73.4667 66.2667C71.6 67.7778 69.5111 68.5334 67.2 68.5334H46.9333C46.5778 68.5334 46.2667 68.7112 46 69.0667C45.7333 69.4223 45.6 69.8223 45.6 70.2667C45.6 70.7112 45.7333 71.0667 46 71.3334C46.2667 71.6001 46.5778 71.7334 46.9333 71.7334H67.2C70.7556 71.7334 73.7778 70.489 76.2667 68.0001C78.7556 65.5112 80 62.489 80 58.9334C80 58.5778 79.8667 58.2223 79.6 57.8667C79.3333 57.5112 78.9333 57.3334 78.4 57.3334ZM35.7333 6.40006C35.7333 5.51117 36 4.80006 36.5333 4.26673C37.0667 3.7334 37.7778 3.46673 38.6667 3.46673H58.4C59.1111 3.46673 59.7778 3.7334 60.4 4.26673C61.0222 4.80006 61.3333 5.51117 61.3333 6.40006V20.8001C61.3333 21.5112 61.0222 22.1778 60.4 22.8001C59.7778 23.4223 59.1111 23.7334 58.4 23.7334H43.7333C43.2 23.7334 42.8444 23.8223 42.6667 24.0001L40 26.4001V25.0667C40 24.7112 39.8667 24.4001 39.6 24.1334C39.3333 23.8667 38.8889 23.7334 38.2667 23.7334C37.6444 23.7334 37.0667 23.4223 36.5333 22.8001C36 22.1778 35.7333 21.5112 35.7333 20.8001V6.40006ZM6.13333 18.1334C6.13333 16.7112 6.62222 15.5556 7.6 14.6667C8.57778 13.7778 9.68889 13.3334 10.9333 13.3334H32.5333V16.5334H10.9333C10.5778 16.5334 10.2222 16.6667 9.86667 16.9334C9.51111 17.2001 9.33333 17.6001 9.33333 18.1334V57.3334H6.13333V18.1334ZM18.9333 57.3334V56.5334C18.9333 54.2223 19.7333 52.2223 21.3333 50.5334C22.9333 48.8445 24.8889 48.0001 27.2 48.0001H28V50.9334C28 51.4667 28.1333 51.8667 28.4 52.1334C28.6667 52.4001 29.0222 52.5334 29.4667 52.5334C29.9111 52.5334 30.2667 52.4001 30.5333 52.1334C30.8 51.8667 30.9333 51.4667 30.9333 50.9334V48.0001H31.7333C34.0444 48.0001 36 48.8445 37.6 50.5334C39.2 52.2223 40 54.2223 40 56.5334V57.3334H18.9333ZM33.6 40.8001C33.6 41.8667 33.2 42.8001 32.4 43.6001C31.6 44.4001 30.6222 44.8001 29.4667 44.8001C28.3111 44.8001 27.3333 44.4001 26.5333 43.6001C25.7333 42.8001 25.3333 41.8667 25.3333 40.8001V39.7334C25.3333 38.6667 25.7333 37.7334 26.5333 36.9334C27.3333 36.1334 28.3111 35.7334 29.4667 35.7334C30.6222 35.7334 31.6 36.1334 32.4 36.9334C33.2 37.7334 33.6 38.6667 33.6 39.7334V40.8001ZM43.2 57.3334V56.5334C43.2 53.8667 42.4444 51.5112 40.9333 49.4667C39.4222 47.4223 37.4222 46.0445 34.9333 45.3334C36 44.089 36.5333 42.5778 36.5333 40.8001V39.7334C36.5333 37.7778 35.8667 36.089 34.5333 34.6667C33.2 33.2445 31.5111 32.5334 29.4667 32.5334C27.4222 32.5334 25.7333 33.2445 24.4 34.6667C23.0667 36.089 22.4 37.7778 22.4 39.7334V40.8001C22.4 42.5778 22.9333 44.089 24 45.3334C21.5111 46.0445 19.5111 47.4223 18 49.4667C16.4889 51.5112 15.7333 53.8667 15.7333 56.5334V57.3334H12.5333V19.4667H32.5333V20.8001C32.5333 22.0445 32.9333 23.2445 33.7333 24.4001C34.5333 25.5556 35.6444 26.3112 37.0667 26.6667V30.4001C37.0667 30.9334 37.3333 31.3778 37.8667 31.7334H38.6667C39.0222 31.7334 39.3778 31.6445 39.7333 31.4667L44.2667 26.6667H58.4C60 26.6667 61.3778 26.089 62.5333 24.9334C63.6889 23.7778 64.2667 22.4001 64.2667 20.8001V19.4667H67.4667V57.3334H43.2ZM70.6667 57.3334V18.1334C70.6667 17.6001 70.4889 17.2001 70.1333 16.9334C69.7778 16.6667 69.4222 16.5334 69.0667 16.5334H64.2667V13.3334H69.0667C70.3111 13.3334 71.4222 13.7778 72.4 14.6667C73.3778 15.5556 73.8667 16.7112 73.8667 18.1334V57.3334H70.6667ZM43.4667 62.9334H36.5333C36.1778 62.9334 35.8222 63.1112 35.4667 63.4667C35.1111 63.8223 34.9333 64.2223 34.9333 64.6667C34.9333 65.1112 35.1111 65.4667 35.4667 65.7334C35.8222 66.0001 36.1778 66.1334 36.5333 66.1334H43.4667C44 66.1334 44.4 66.0001 44.6667 65.7334C44.9333 65.4667 45.0667 65.1112 45.0667 64.6667C45.0667 64.2223 44.9333 63.8223 44.6667 63.4667C44.4 63.1112 44 62.9334 43.4667 62.9334ZM44.8 19.4667C45.3333 19.8223 45.8667 20.0001 46.4 20.0001C46.9333 20.0001 47.3778 19.8223 47.7333 19.4667L53.6 16.0001C54.6667 15.4667 55.2 14.6223 55.2 13.4667C55.2 12.3112 54.6667 11.4667 53.6 10.9334L47.7333 7.46673C46.8444 6.9334 45.8667 6.9334 44.8 7.46673C43.7333 8.00006 43.2 8.88895 43.2 10.1334V16.8001C43.2 18.0445 43.7333 18.9334 44.8 19.4667ZM46.4 10.4001L52 13.6001L46.4 16.5334V10.4001ZM40 68.5334C39.6444 68.5334 39.2889 68.7112 38.9333 69.0667C38.5778 69.4223 38.4 69.8223 38.4 70.2667C38.4 70.7112 38.5778 71.0667 38.9333 71.3334C39.2889 71.6001 39.6444 71.7334 40 71.7334C40.3556 71.7334 40.7111 71.6001 41.0667 71.3334C41.4222 71.0667 41.6 70.7112 41.6 70.2667C41.6 69.8223 41.4222 69.4223 41.0667 69.0667C40.7111 68.7112 40.3556 68.5334 40 68.5334Z" fill="white"/>
</svg>
