<svg width="43" height="44" viewBox="0 0 43 44" fill="none" xmlns="http://www.w3.org/2000/svg">
<path d="M3.45459 12.5006L3.45944 12.5096C3.45944 12.5051 3.45459 12.5051 3.45459 12.5006Z" fill="#2AAA94"/>
<path opacity="0.2" d="M3.45459 12.5006L3.45944 12.5096C3.45944 12.5051 3.45459 12.5051 3.45459 12.5006Z" fill="#2AAA94"/>
<path d="M40.7722 0H2.23248C1.00579 0 0 0.924681 0 2.05245V42.7341C0 43.8619 0.869491 44.3242 1.93168 43.7581L12.5019 38.1452L17.3899 35.5527L26.5689 30.683L41.073 22.9874C41.2281 22.9053 41.3785 22.8016 41.5242 22.6849C42.3702 22.0152 43 20.8745 43 19.9109V16.9683V2.05245C43 0.924681 41.9989 0 40.7722 0ZM29.8636 21.972C29.8636 23.5837 25.4832 24.8843 20.0736 24.8843C14.6686 24.8843 10.2835 23.5794 10.2835 21.972V15.7541L19.0161 17.7547C19.3639 17.8325 19.7164 17.8757 20.0736 17.8757C20.4308 17.8757 20.7833 17.8368 21.1311 17.7547L29.8636 15.7541V21.972ZM36.044 13.14L34.714 13.4424V21.2849C35.043 21.6133 35.2498 22.093 35.2498 22.6288C35.2498 23.6139 34.5448 24.4176 33.68 24.4176C32.8152 24.4176 32.1102 23.6182 32.1102 22.6288C32.1102 22.093 32.317 21.609 32.646 21.2849V13.9177L29.8636 14.5529L20.9289 16.601C20.647 16.6659 20.365 16.7004 20.0736 16.7004C19.7869 16.7004 19.5002 16.6659 19.2229 16.601L10.2835 14.5529L4.10307 13.14C3.92917 13.1011 3.80227 13.006 3.68947 12.8937C3.58607 12.7857 3.50617 12.656 3.45917 12.5091L3.45448 12.5005C3.30408 11.9863 3.52027 11.3425 4.09837 11.2085L19.2182 7.7388C19.5002 7.66967 19.7869 7.63942 20.0689 7.63942C20.3556 7.63942 20.6423 7.67399 20.9243 7.7388L36.044 11.2085C36.3401 11.2777 36.5281 11.4807 36.6362 11.727C36.8618 12.2585 36.6691 12.9931 36.044 13.14Z" fill="#04016C"/>
<path opacity="0.2" d="M36.6357 11.7313C36.8613 12.2585 36.6733 12.993 36.0435 13.1399L34.7134 13.4424V21.2849C35.0424 21.6133 35.2492 22.0929 35.2492 22.6287C35.2492 23.6139 34.5442 24.4176 33.6795 24.4176C32.8147 24.4176 32.1097 23.6182 32.1097 22.6287C32.1097 22.0929 32.3165 21.609 32.6455 21.2849V13.9177L29.8631 14.5529L20.9284 16.601C20.6464 16.6658 20.3644 16.7004 20.0731 16.7004C19.7864 16.7004 19.4997 16.6658 19.2224 16.601L10.283 14.5529L4.10256 13.1399C3.92866 13.1011 3.80176 13.006 3.68896 12.8937L17.3894 35.5527L26.5684 30.683L41.0725 22.9874C41.2276 22.9053 41.378 22.8016 41.5237 22.6849L36.6451 11.7356H36.6357V11.7313ZM29.8631 21.9719C29.8631 23.5837 25.4827 24.8843 20.0731 24.8843C14.6681 24.8843 10.283 23.5793 10.283 21.9719V15.7541L19.0156 17.7547C19.3634 17.8325 19.7159 17.8757 20.0731 17.8757C20.4302 17.8757 20.7827 17.8368 21.1305 17.7547L29.8631 15.7541V21.9719Z" fill="#2AAA94"/>
</svg>
