<svg width="80" height="76" viewBox="0 0 80 76" fill="none" xmlns="http://www.w3.org/2000/svg">
<path d="M23.4667 12.3999C23.2889 12.0444 22.9778 11.8221 22.5333 11.7332C22.0889 11.6444 21.6889 11.6888 21.3333 11.8666C20.9778 12.2221 20.7111 12.5777 20.5333 12.9333C20.3556 13.2888 20.4 13.6888 20.6667 14.1332C20.9333 14.5777 21.2889 14.7999 21.7333 14.7999C22.1778 14.7999 22.5778 14.711 22.9333 14.5332C23.2889 14.3555 23.5111 14.0444 23.6 13.5999C23.6889 13.1555 23.6444 12.7555 23.4667 12.3999ZM79.2 24.6666L40.8 0.93325C40.2667 0.577695 39.7333 0.577695 39.2 0.93325L26.4 8.93325C25.8667 9.11103 25.5556 9.42214 25.4667 9.86658C25.3778 10.311 25.4667 10.711 25.7333 11.0666C26 11.4221 26.3556 11.6444 26.8 11.7332C27.2444 11.8221 27.6444 11.7777 28 11.5999L40 4.13325L75.4667 25.9999L40 47.8666L20.8 36.1333L37.0667 26.5332C37.9556 27.2444 38.9778 27.5999 40.1333 27.5999C41.2889 27.5999 42.3556 27.111 43.3333 26.1333C44.3111 25.1555 44.8 24.0444 44.8 22.7999C44.8 21.5555 44.3111 20.4888 43.3333 19.5999C42.3556 18.711 41.2444 18.2666 40 18.2666C38.7556 18.2666 37.6444 18.711 36.6667 19.5999C35.6889 20.4888 35.2 21.5555 35.2 22.7999L35.4667 23.8666L17.8667 34.2666L4.53333 25.9999L16.8 18.2666C17.1556 18.0888 17.3778 17.7777 17.4667 17.3332C17.5556 16.8888 17.5111 16.4888 17.3333 16.1332C17.1556 15.7777 16.8444 15.5555 16.4 15.4666C15.9556 15.3777 15.5556 15.4221 15.2 15.5999L0.8 24.6666C0.266667 25.0221 0 25.4666 0 25.9999C0 26.5332 0.266667 26.9777 0.8 27.3332L14.9333 35.8666L13.0667 36.9333C11.6444 37.8221 10.5333 38.9777 9.73333 40.3999C8.93333 41.8221 8.53333 43.3333 8.53333 44.9333V47.5999C7.64444 47.9555 6.88889 48.4888 6.26667 49.1999C5.64444 49.911 5.33333 50.7999 5.33333 51.8666V54.5333C4.08889 55.7777 3.46667 57.3777 3.46667 59.3333V73.7333C3.46667 74.2666 3.6 74.6666 3.86667 74.9333C4.13333 75.1999 4.53333 75.3333 5.06667 75.3333H14.9333C15.4667 75.3333 15.8667 75.1999 16.1333 74.9333C16.4 74.6666 16.5333 74.2666 16.5333 73.7333V59.3333C16.5333 57.3777 15.9111 55.7777 14.6667 54.5333V51.8666C14.6667 50.7999 14.3556 49.911 13.7333 49.1999C13.1111 48.4888 12.3556 47.9555 11.4667 47.5999V44.9333C11.4667 43.8666 11.7333 42.8888 12.2667 41.9999C12.8 41.111 13.6 40.3999 14.6667 39.8666L16.5333 38.5332V53.7333C16.5333 54.0888 16.7111 54.4444 17.0667 54.7999C17.4222 55.1555 17.7778 55.3333 18.1333 55.3333C22.0444 55.3333 25.7778 56.0888 29.3333 57.5999C32.8889 59.111 36.0889 61.2888 38.9333 64.1333C39.2889 64.311 39.6444 64.3999 40 64.3999C40.3556 64.3999 40.7111 64.311 41.0667 64.1333C43.9111 61.2888 47.1111 59.111 50.6667 57.5999C54.2222 56.0888 57.9556 55.3333 61.8667 55.3333C62.2222 55.3333 62.5778 55.1555 62.9333 54.7999C63.2889 54.4444 63.4667 54.0888 63.4667 53.7333V51.0666C63.4667 50.5333 63.2889 50.1333 62.9333 49.8666C62.5778 49.5999 62.2222 49.4666 61.8667 49.4666C61.5111 49.4666 61.1556 49.5999 60.8 49.8666C60.4444 50.1333 60.2667 50.5333 60.2667 51.0666V52.1333C53.3333 52.4888 47.1111 54.8888 41.6 59.3333V56.1333C41.6 55.7777 41.4222 55.4221 41.0667 55.0666C40.7111 54.711 40.3556 54.5333 40 54.5333C39.6444 54.5333 39.2889 54.711 38.9333 55.0666C38.5778 55.4221 38.4 55.7777 38.4 56.1333V59.3333C32.8889 54.8888 26.6667 52.4888 19.7333 52.1333V39.0666L39.2 51.0666C39.3778 51.2444 39.6444 51.3333 40 51.3333C40.3556 51.3333 40.6222 51.2444 40.8 51.0666L60.2667 39.0666V40.6666C60.2667 41.1999 60.4444 41.5999 60.8 41.8666C61.1556 42.1333 61.5111 42.2666 61.8667 42.2666C62.2222 42.2666 62.5778 42.1333 62.9333 41.8666C63.2889 41.5999 63.4667 41.1999 63.4667 40.6666V37.1999L79.2 27.3332C79.7333 26.9777 80 26.5332 80 25.9999C80 25.4666 79.7333 25.0221 79.2 24.6666ZM40 21.1999C40.3556 21.1999 40.7111 21.3777 41.0667 21.7332C41.4222 22.0888 41.6 22.4888 41.6 22.9333C41.6 23.3777 41.4222 23.7332 41.0667 23.9999C40.7111 24.2666 40.3556 24.3999 40 24.3999C39.6444 24.3999 39.2889 24.2666 38.9333 23.9999C38.5778 23.7332 38.4 23.3777 38.4 22.9333C38.4 22.4888 38.5778 22.0888 38.9333 21.7332C39.2889 21.3777 39.6444 21.1999 40 21.1999ZM8.53333 51.8666C8.53333 51.511 8.66667 51.1555 8.93333 50.7999C9.2 50.4444 9.55556 50.2666 10 50.2666C10.4444 50.2666 10.8 50.4444 11.0667 50.7999C11.3333 51.1555 11.4667 51.511 11.4667 51.8666V52.6666H8.53333V51.8666ZM13.3333 59.3333V72.1333H6.66667V59.3333C6.66667 58.2666 6.97778 57.4221 7.6 56.7999C8.22222 56.1777 9.02222 55.8666 10 55.8666C10.9778 55.8666 11.7778 56.1777 12.4 56.7999C13.0222 57.4221 13.3333 58.2666 13.3333 59.3333ZM62.9333 44.3999C62.5778 44.0444 62.2222 43.8666 61.8667 43.8666C61.5111 43.8666 61.1556 44.0444 60.8 44.3999C60.4444 44.7555 60.2667 45.1555 60.2667 45.5999C60.2667 46.0444 60.4444 46.3999 60.8 46.6666C61.1556 46.9333 61.5111 47.0666 61.8667 47.0666C62.2222 47.0666 62.5778 46.9333 62.9333 46.6666C63.2889 46.3999 63.4667 46.0444 63.4667 45.5999C63.4667 45.1555 63.2889 44.7555 62.9333 44.3999Z" fill="white"/>
</svg>
